<?xml version="1.0" encoding="UTF-8" standalone="no"?>
<svg
   xmlns:dc="http://purl.org/dc/elements/1.1/"
   xmlns:cc="http://creativecommons.org/ns#"
   xmlns:rdf="http://www.w3.org/1999/02/22-rdf-syntax-ns#"
   xmlns:svg="http://www.w3.org/2000/svg"
   xmlns="http://www.w3.org/2000/svg"
   xmlns:sodipodi="http://sodipodi.sourceforge.net/DTD/sodipodi-0.dtd"
   xmlns:inkscape="http://www.inkscape.org/namespaces/inkscape"
   version="1.0"
   width="2206.000000pt"
   height="758.000000pt"
   viewBox="0 0 2206.000000 758.000000"
   preserveAspectRatio="xMidYMid meet"
   id="svg30"
   sodipodi:docname="konviw.svg"
   inkscape:version="1.0.1 (c497b03c, 2020-09-10)">
  <defs
     id="defs34" />
  <sodipodi:namedview
     pagecolor="#ffffff"
     bordercolor="#666666"
     borderopacity="1"
     objecttolerance="10"
     gridtolerance="10"
     guidetolerance="10"
     inkscape:pageopacity="0"
     inkscape:pageshadow="2"
     inkscape:window-width="1727"
     inkscape:window-height="988"
     id="namedview32"
     showgrid="false"
     inkscape:zoom="0.30009657"
     inkscape:cx="1066.1247"
     inkscape:cy="505.33333"
     inkscape:window-x="0"
     inkscape:window-y="25"
     inkscape:window-maximized="0"
     inkscape:current-layer="svg30" />
  <metadata
     id="metadata10">
Created by potrace 1.16, written by Peter Selinger 2001-2019
<rdf:RDF>
  <cc:Work
     rdf:about="">
    <dc:format>image/svg+xml</dc:format>
    <dc:type
       rdf:resource="http://purl.org/dc/dcmitype/StillImage" />
    <dc:title></dc:title>
  </cc:Work>
</rdf:RDF>
</metadata>
  <path
     style="fill:#2c5aa0;fill-opacity:1;stroke:none;stroke-width:1.57614"
     d="m 875.33265,584.27295 c -16.92682,-3.93774 -28.47458,-12.45345 -35.3469,-26.06601 -3.50603,-6.94477 -3.71333,-9.19214 -4.32142,-46.85241 -0.61868,-38.32147 -0.75998,-39.79341 -4.52123,-47.09816 -5.6568,-10.98612 -11.16082,-13.42883 -30.2583,-13.42883 -8.46555,0 -15.4614,0.53194 -15.5463,1.1821 -0.0849,0.65016 -0.64792,23.52385 -1.25108,50.83044 -1.03679,46.93721 -1.29232,50.08884 -4.67879,57.71541 -7.07565,15.93468 -18.8094,23.14028 -37.56999,23.0714 -20.01306,-0.0735 -31.86555,-9.02829 -37.95219,-28.67372 -2.48229,-8.01189 -2.71695,-20.40878 -2.71695,-143.52907 0,-124.47092 0.21135,-135.36472 2.7683,-142.68341 4.02392,-11.51758 9.65875,-18.95553 18.13492,-23.93805 6.56063,-3.85651 8.99816,-4.37474 20.07635,-4.26828 14.63236,0.14061 22.50533,3.35602 30.49321,12.45375 9.42577,10.73532 10.0095,13.69151 11.36595,57.56319 0.68347,22.10533 1.29712,46.78925 1.36365,54.85315 l 0.12097,14.66164 8.11193,-0.4764 8.112,-0.47641 19.41795,-48.07219 c 27.9873,-69.28702 33.89595,-79.96476 48.68145,-87.97483 6.70717,-3.63358 23.23245,-3.18546 32.39467,0.87844 19.85393,8.80628 27.66563,28.10897 21.28673,52.59938 -1.76355,6.77074 -19.65923,50.87756 -44.43278,109.51203 -0.40072,0.94855 3.08235,4.60198 7.74023,8.11871 10.91602,8.24166 21.92655,24.5929 27.33435,40.59306 3.86047,11.42202 4.33065,15.34931 4.99372,41.71522 0.73073,29.05748 0.73935,29.11542 5.16525,34.67503 2.4384,3.06289 5.25383,8.87546 6.2565,12.9168 3.66165,14.75778 -5.65957,31.93839 -20.73495,38.21811 -8.1927,3.41273 -24.3426,4.33989 -34.48725,1.97991 z"
     id="path36" />
  <path
     style="fill:#2c5aa0;fill-opacity:1;stroke:#2c5aa0;stroke-width:0;stroke-miterlimit:4;stroke-dasharray:none;stroke-opacity:1"
     d="m 1043.6862,584.78577 c -39.2309,-6.23417 -63.2274,-22.07748 -77.04045,-50.86452 -7.8705,-16.40258 -9.2979,-27.8285 -9.2979,-74.42496 0,-46.59645 1.4274,-58.02237 9.2979,-74.42495 12.0285,-25.06795 34.51675,-42.02537 64.72455,-48.80591 17.4615,-3.91947 50.5373,-3.50456 66.6714,0.83633 27.3532,7.35943 47.5375,23.37508 58.3946,46.33427 8.8088,18.62801 9.484,23.92564 9.5941,75.2722 0.1125,52.47044 -0.6281,58.14568 -10.1991,78.16163 -10.871,22.73464 -30.2852,37.80831 -57.7896,44.86943 -14.1137,3.62337 -41.1793,5.14032 -54.3555,3.04648 z m 34.644,-66.7198 4.2646,-4.26457 v -52.10601 -52.106 l -5.1473,-4.59913 c -4.425,-3.95368 -6.4218,-4.59912 -14.2286,-4.59912 -10.1564,0 -14.7911,2.37862 -18.4604,9.47423 -1.9406,3.75253 -2.3552,13.13394 -2.3552,53.28044 0,47.38859 0.092,48.84357 3.3699,53.0102 4.6228,5.87687 8.5023,7.22528 19.1598,6.65942 7.4549,-0.3958 9.916,-1.26831 13.3972,-4.74946 z"
     id="path38" />
  <path
     style="fill:#2c5aa0;fill-opacity:1;stroke-width:1.57614"
     d="m 1237.2984,583.02599 c -15.2402,-2.31674 -25.2251,-13.04363 -30.1935,-32.43713 -2.146,-8.37667 -2.4232,-21.61725 -2.0285,-96.8936 l 0.4571,-87.19108 3.6511,-8.06707 c 7.2901,-16.10771 18.7805,-23.05622 38.1537,-23.07245 17.0474,-0.0143 29.0936,6.5517 37.1477,20.24802 1.5925,2.70804 2.3027,2.41143 9.4568,-3.9493 4.2543,-3.78248 12.1874,-8.98192 17.6291,-11.5543 9.4672,-4.47535 10.6567,-4.6522 27.5824,-4.10062 16.5811,0.54033 18.4601,0.94407 30.0165,6.44931 20.8774,9.94554 35.0977,28.08891 41.2929,52.68465 2.0786,8.25261 2.3809,21.01645 1.9966,84.32336 -0.4457,73.43461 -0.507,74.70001 -3.9238,81.08689 -5.3082,9.92229 -11.5113,16.51974 -18.5297,19.70781 -8.3715,3.80262 -28.8077,4.04373 -36.0007,0.42474 -8.5885,-4.32114 -16.6961,-13.38781 -20.2238,-22.61607 -3.1499,-8.24004 -3.3959,-12.61413 -4.3571,-77.48634 -1.0496,-70.8426 -1.0938,-71.30475 -7.2576,-75.83316 -2.7461,-2.01759 -14.1407,-1.29811 -17.5787,1.10996 -3.8458,2.69365 -9.2536,13.53695 -11.5858,23.23077 -0.8949,3.72012 -2.3127,31.54589 -3.1503,61.83504 -1.6768,60.62942 -2.558,66.65607 -11.4511,78.31569 -8.8136,11.55536 -23.4592,16.46705 -41.1033,13.78488 z"
     id="path40" />
  <path
     style="fill:#2c5aa0;fill-opacity:1;stroke-width:1.57614"
     d="m 1532.2739,583.34922 c -14.4531,-2.92338 -22.5265,-13.22627 -35.2982,-45.04605 -14.4541,-36.01178 -47.8825,-123.45233 -52.8124,-138.14452 -8.731,-26.02016 -4.8938,-47.53973 10.3999,-58.32395 11.7549,-8.28889 28.974,-8.75662 41.3262,-1.12256 12.4015,7.66456 16.0921,14.76037 30.5216,58.68338 7.442,22.65292 14.18,41.14106 14.9733,41.08476 0.7935,-0.0563 6.2553,-16.01469 12.1375,-35.46309 13.0711,-43.2168 17.5703,-53.03715 28.1197,-61.37597 8.8241,-6.97504 14.6768,-8.54264 28.2334,-7.56205 12.0663,0.8728 20.9955,6.80812 26.5864,17.67231 4.7126,9.15761 6.1463,24.14101 3.3704,35.22375 -1.9206,7.66774 -37.9585,104.83323 -55.0923,148.53987 -9.9873,25.47689 -17.5312,37.79759 -26.1511,42.71013 -5.6918,3.24376 -18.3137,4.74223 -26.3144,3.12399 z"
     id="path42" />
  <path
     style="fill:#2c5aa0;fill-opacity:1;stroke-width:1.57614"
     d="m 1699.9717,581.64383 c -8.1047,-3.41728 -14.6684,-10.18809 -19.6161,-20.23502 l -5.1332,-10.42349 -0.5082,-81.90099 c -0.6363,-102.543 0.2084,-109.91848 14.1909,-123.90104 7.0868,-7.08676 14.4789,-9.83138 26.5456,-9.8562 17.6093,-0.0362 29.8632,7.63497 37.2134,23.29641 l 3.6987,7.88068 0.016,93.24844 0.016,93.24844 -5.1374,9.92412 c -3.5028,6.76645 -7.3059,11.44912 -11.9527,14.71697 -6.2517,4.39655 -8.0099,4.82328 -21.2628,5.16069 -7.9463,0.20231 -16.0773,-0.31925 -18.0689,-1.15901 z"
     id="path44" />
  <path
     style="fill:#2c5aa0;fill-opacity:1;stroke-width:1.57614"
     d="m 1706.4716,323.15573 c -8.8048,-1.82834 -14.487,-4.96723 -20.4338,-11.28785 -8.3995,-8.92755 -10.0309,-13.82572 -9.9927,-30.00281 0.05,-21.41031 4.3798,-29.40037 20.4552,-37.75231 5.7819,-3.00396 9.4456,-3.66957 19.8248,-3.60171 18.9503,0.1239 30.7271,5.98274 37.213,18.51306 5.2917,10.22323 5.9159,30.9431 1.2581,41.77017 -3.7434,8.70181 -11.5719,16.7222 -19.5659,20.04533 -6.7423,2.80282 -20.9173,3.94442 -28.7587,2.31612 z"
     id="path46" />
  <path
     style="fill:#2c5aa0;fill-opacity:1;stroke-width:1.57614"
     d="m 1885.268,583.17197 c -11.0879,-1.86719 -19.5293,-9.57326 -27.1865,-24.81851 -3.8543,-7.67358 -26.2986,-65.77108 -52.1954,-135.10833 -12.033,-32.21769 -12.3634,-33.47766 -12.4078,-47.3262 -0.039,-12.2183 0.5231,-15.33214 3.9809,-22.0515 2.4377,-4.73684 6.6887,-9.69567 10.7733,-12.56702 5.9207,-4.16204 8.3228,-4.80885 19.6156,-5.28187 12.4,-0.51941 13.15,-0.34715 20.5901,4.72841 12.9615,8.8422 16.0029,14.81229 32.4635,63.72505 8.3273,24.7448 15.721,45.12036 16.4302,45.27901 0.7094,0.15865 6.2316,-13.85855 12.2717,-31.14934 6.0402,-17.29078 13.0263,-34.40905 15.5249,-38.04058 8.9035,-12.94085 24.5047,-19.66004 39.8407,-17.15884 16.3169,2.66116 25.4164,13.62194 38.0435,45.82493 5.0626,12.91113 10.7341,27.37572 12.6034,32.14353 1.8693,4.76782 4.0642,8.55156 4.8776,8.40831 0.8134,-0.14323 6.9058,-18.55379 13.5388,-40.91232 15.9549,-53.78211 19.5231,-60.888 34.7313,-69.16533 9.7066,-5.28303 22.0441,-5.94252 32.0157,-1.71138 17.2184,7.30609 25.7852,27.99334 20.6901,49.96288 -2.379,10.25816 -47.8428,133.07345 -58.8657,159.01905 -7.7439,18.22772 -14.6956,28.75859 -21.9432,33.24095 -5.0982,3.15303 -7.9996,3.73144 -17.9847,3.58531 -13.9368,-0.20393 -18.9422,-2.3457 -27.4247,-11.7348 -8.202,-9.07861 -13.1518,-20.77647 -23.6223,-55.82613 -10.6526,-35.65947 -12.195,-40.19151 -13.678,-40.19151 -1.1989,0 -2.7239,4.44591 -15.6786,45.70799 -10.1769,32.4144 -15.1257,43.49317 -23.4738,52.54972 -5.1873,5.62767 -8.2193,7.47945 -14.4259,8.8105 -8.6383,1.8526 -8.4514,1.85203 -19.1047,0.058 z"
     id="path48" />
  <path
     style="mix-blend-mode:lighten;fill:#2c5aa0;fill-opacity:1;stroke:#000000;stroke-width:0;stroke-linejoin:round;stroke-miterlimit:4;stroke-dasharray:none;stroke-opacity:1"
     d="m 353.76364,690.71732 c -7.35788,-2.13471 -12.59041,-8.37008 -17.24434,-20.54933 -8.62547,-22.57258 -22.19038,-37.84765 -42.70759,-48.0918 -15.17017,-7.57442 -25.51457,-8.30745 -118.44367,-8.3931 -70.61248,-0.0651 -74.85112,-0.22983 -80.536275,-3.13017 -3.30055,-1.68382 -7.35055,-5.05281 -9,-7.48666 -2.88134,-4.25155 -2.98475,-8.44472 -2.63576,-106.87411 0.19978,-56.34692 1.10226,-146.31182 2.0055,-199.92202 1.77339,-105.25654 1.60607,-103.48846 10.33536,-109.20811 3.59794,-2.35746 9.905855,-2.49506 67.347075,-1.46904 99.13621,1.77076 114.4783,2.757 130.89067,8.41411 15.51607,5.34816 27.56442,12.18079 38.78088,21.99269 4.23296,3.70289 8.02288,6.73252 8.42205,6.73252 0.39915,0 1.24212,-10.02217 1.87324,-22.2715 1.3353,-25.91685 4.52549,-39.21281 13.58815,-56.63242 16.46433,-31.64652 46.3557,-55.453989 81.21679,-64.686436 9.83232,-2.603948 17.66649,-3.33948 37.63526,-3.53349 24.08134,-0.233963 25.45019,-0.07954 30.36442,3.425557 10.56684,7.53684 10.66308,8.131898 10.18806,62.995709 l -0.4271,49.32875 56.37998,-1.07895 c 54.93849,-1.05137 56.47859,-0.9981 60.23752,2.08344 3.81809,3.13007 3.86962,3.53112 5.03864,39.22583 1.51224,46.17467 4.21589,185.65904 5.54124,285.88121 0.94065,71.12966 0.79875,78.46877 -1.60707,83.11458 -5.51992,10.65939 -3.31791,10.39137 -101.88213,12.40063 -48.97847,0.99844 -91.18608,2.51387 -93.79469,3.36759 -10.80305,3.53561 -21.89619,10.52343 -32.32756,20.36386 -8.96853,8.46045 -12.28617,13.01907 -17.47465,24.01108 -3.52241,7.46236 -7.58525,16.05036 -9.02851,19.08442 -4.71325,9.90828 -19.35714,14.78658 -32.73549,10.90516 z m 56.69415,-106.98179 c 27.34564,-13.64255 24.1962,-13.25881 113.85592,-13.87246 l 78.96935,-0.54049 1.06593,-62.5715 c 2.15129,-126.28441 4.06424,-224.18272 5.03098,-257.46898 l 0.99129,-34.1315 -11.58725,-0.88012 c -6.373,-0.48407 -27.72298,-1.27195 -47.4444,-1.75083 l -35.85713,-0.87071 2.7e-4,28.00164 c 4.3e-4,44.19776 -3.01878,220.14577 -4.08706,238.17881 -0.88537,14.94525 -1.33506,16.72492 -5.36609,21.23642 l -4.39975,4.92417 -26.89093,1.083 c -14.79002,0.59563 -29.2274,1.58521 -32.08308,2.19904 -10.16581,2.18516 -28.70878,12.58921 -38.21381,21.44093 -17.83553,16.60962 -27.09021,37.56086 -28.78884,65.17368 l -0.96796,15.73534 9.89983,-8.95882 c 6.2658,-5.67025 15.76312,-11.884 25.87273,-16.92762 z M 353.137,597.45898 c -0.002,-5.41797 -1.38904,-53.11583 -3.08267,-105.99524 -1.69365,-52.87941 -3.8732,-125.22412 -4.84347,-160.76602 l -1.76415,-64.62164 -5.00404,-8.43339 c -10.76502,-18.1424 -33.88122,-34.48995 -56.22853,-39.76428 -9.86341,-2.32792 -12.70742,-2.34853 -98.00269,-0.71047 l -62.5396,1.20106 0.71774,34.09842 c 0.85101,40.42923 3.79778,272.04558 3.79264,298.10147 l -0.004,18.12558 76.83564,0.0126 c 83.71546,0.0142 83.7349,0.0158 105.24415,9.52789 11.01316,4.87056 27.5379,15.49531 36.21312,23.28363 3.4675,3.11302 6.8365,5.68955 7.48665,5.72562 0.65016,0.0361 1.18061,-4.36727 1.17878,-9.78524 z m 34.67835,-93.41535 c 11.77986,-12.39475 37.8977,-26.96949 54.61633,-30.47801 4.46616,-0.93725 13.8965,-2.1858 20.95634,-2.77457 l 12.83605,-1.0705 -0.89585,-10.40625 c -1.29198,-15.00767 -3.96445,-189.16207 -3.97155,-258.81076 -0.003,-32.59739 -0.47128,-63.71916 -1.0399,-69.1595 l -1.03387,-9.89152 -10.49292,0.97522 c -34.255,3.18366 -63.06277,27.94682 -70.89919,60.94495 -0.92068,3.87684 -2.71292,47.12209 -3.98277,96.10056 -2.93565,113.22983 -5.25487,189.32982 -6.52558,214.12257 -1.13057,22.05838 -0.8596,22.32975 10.43291,10.44781 z"
     id="path50" />
</svg>
