<?xml version="1.0" standalone="no"?>
<!DOCTYPE svg PUBLIC "-//W3C//DTD SVG 20010904//EN"
 "http://www.w3.org/TR/2001/REC-SVG-20010904/DTD/svg10.dtd">
<svg version="1.0" xmlns="http://www.w3.org/2000/svg"
 width="141.000000pt" height="141.000000pt" viewBox="0 0 141.000000 141.000000"
 preserveAspectRatio="xMidYMid meet">
<metadata>
Created by potrace 1.14, written by Peter Selinger 2001-2017
</metadata>
<g transform="translate(0.000000,141.000000) scale(0.100000,-0.100000)"
fill="#000000" stroke="none">
<path d="M855 1397 c-118 -47 -188 -135 -201 -254 -3 -32 -7 -59 -8 -60 -1 -1
-19 9 -41 24 -56 38 -89 43 -310 50 -174 5 -202 3 -214 -10 -10 -12 -14 -120
-18 -475 -5 -421 -4 -460 12 -475 14 -15 41 -17 188 -18 220 -1 247 -3 283
-22 38 -19 63 -48 94 -105 19 -37 31 -48 53 -50 28 -3 67 20 67 40 0 5 13 29
30 52 48 70 82 82 256 85 202 3 277 9 286 24 5 7 6 190 3 407 -7 439 -10 514
-20 530 -5 7 -49 10 -133 8 l-127 -2 -3 114 c-3 143 -8 150 -101 149 -36 0
-79 -6 -96 -12z m94 -422 c2 -165 4 -337 5 -383 2 -45 0 -82 -3 -82 -70 -5
-121 -24 -178 -66 -17 -13 -34 -24 -37 -24 -3 0 -3 46 -1 103 2 56 7 206 10
332 9 329 13 353 61 396 48 42 125 65 135 40 3 -9 7 -151 8 -316z m308 112 c5
-3 8 -25 7 -49 -1 -24 -5 -203 -9 -398 -3 -195 -7 -355 -8 -356 -1 -1 -90 -4
-197 -6 -208 -5 -219 -7 -296 -65 l-31 -23 8 49 c9 60 28 97 66 132 43 40 66
49 145 55 50 4 77 11 86 22 7 10 12 50 13 101 1 47 2 156 4 241 2 85 3 190 4
232 l1 78 99 -4 c54 -2 103 -6 108 -9z m-717 -11 c34 -12 89 -55 102 -80 13
-23 14 -47 23 -381 4 -132 8 -279 10 -327 2 -49 1 -88 -2 -88 -2 0 -23 13 -46
28 -75 50 -93 54 -286 54 l-181 0 -1 41 c0 23 -2 201 -5 396 -3 220 -1 356 5
360 15 10 353 7 381 -3z"/>
</g>
</svg>
